<svg xmlns="http://www.w3.org/2000/svg" viewBox="0 0 48 48">
  <circle cx="24" cy="24" r="22" fill="#1DB954"/>
  <path fill="#000" d="M33 21c-4-2.5-11-2.7-15-1.5-.7.2-1.4-.2-1.6-.8-.2-.7.2-1.4.8-1.6 4.8-1.5 12.5-1.2 17.2 1.6.6.4.8 1.2.4 1.8-.4.6-1.2.9-1.8.5zm-.5 5.5c-.5.7-1.3 1-2 .5-3.6-2.2-9-2.8-13.3-1.6-.8.2-1.6-.3-1.8-1-.2-.8.3-1.6 1-1.8 4.8-1.4 10.8-.7 15 1.9.7.4 1 1.3.5 2zm-1.8 5.4c-.4.6-1.1.8-1.7.4-3-1.8-6.9-2.3-11.4-1.3-.7.2-1.3-.3-1.5-.9-.2-.7.3-1.3.9-1.5 5-1.1 9.3-.6 12.7 1.5.6.4.8 1.2.4 1.8z"/>
</svg>
